<svg width="14" height="24" viewBox="0 0 14 24" fill="none" xmlns="http://www.w3.org/2000/svg">
<path d="M6.75 21C6.33 21 6 20.67 6 20.25V6.75C6 6.33 6.33 6 6.75 6C7.17 6 7.5 6.33 7.5 6.75V20.25C7.5 20.67 7.17 21 6.75 21Z" fill="#F24822"/>
<path d="M12 11.25C11.9016 11.2512 11.8041 11.2318 11.7137 11.1931C11.6233 11.1543 11.542 11.0971 11.475 11.025L6.75 6.3L2.025 11.025C1.725 11.325 1.26 11.325 0.96 11.025C0.66 10.725 0.66 10.26 0.96 9.96L6.21 4.71C6.51 4.41 6.975 4.41 7.275 4.71L12.525 9.96C12.825 10.26 12.825 10.725 12.525 11.025C12.375 11.175 12.18 11.25 12 11.25Z" fill="#F24822"/>
</svg>
