<svg width="24" height="24" viewBox="0 0 24 24" fill="none" xmlns="http://www.w3.org/2000/svg">
<path d="M13.74 4.23C13.1397 3.51448 12.5682 2.77522 12.027 2.014C12.024 2.00966 12.0199 2.00613 12.0152 2.00369C12.0105 2.00124 12.0053 1.99997 12 1.99997C11.9947 1.99997 11.9895 2.00124 11.9848 2.00369C11.9801 2.00613 11.976 2.00966 11.973 2.014C11.4318 2.77556 10.8604 3.51515 10.26 4.231C3.048 13.418 11.398 19.616 11.398 19.616L11.465 19.663C11.529 20.622 11.686 22 11.686 22H12.314C12.314 22 12.471 20.628 12.534 19.67L12.603 19.616C12.603 19.616 20.952 13.418 13.741 4.231M12 19.482C12 19.482 11.626 19.162 11.525 19.002L11.524 18.986L11.977 8.984C11.9781 8.97859 11.9811 8.97374 11.9854 8.97026C11.9896 8.96677 11.995 8.96487 12.0005 8.96487C12.006 8.96487 12.0114 8.96677 12.0157 8.97026C12.0199 8.97374 12.0229 8.97859 12.024 8.984L12.476 18.986V19.003C12.375 19.163 12 19.482 12 19.482Z" fill="#14AE5C"/>
</svg>
