<svg width="36" height="24" viewBox="0 0 36 24" fill="none" xmlns="http://www.w3.org/2000/svg">
<path d="M10.4745 15.837L11.5445 19.3089C11.7849 20.0972 11.8852 20.6475 11.845 20.9611C12.4302 19.3938 12.8391 17.6858 13.0718 15.837H14.3584C13.8051 18.8468 13.0755 21.0338 12.1697 22.3982C11.464 23.4496 10.6909 23.9752 9.84908 23.9752C9.62462 23.9752 9.3479 23.9074 9.01953 23.7728V23.0473C9.17997 23.0708 9.36819 23.0834 9.58467 23.0834C9.97733 23.0833 10.294 22.9746 10.5348 22.7573C10.8231 22.4926 10.9675 22.1951 10.9675 21.8654C10.9675 21.6402 10.8549 21.1782 10.6308 20.4792L9.13988 15.837H10.4745ZM2.28509 13.7031L4.24498 19.6829H4.25708L6.229 13.7031H7.84009C8.19287 16.6687 8.40124 19.382 8.46519 21.8415H7.10689C7.05903 19.5425 6.92681 17.3804 6.71024 15.3553H6.69841L4.63001 21.8415H3.5956L1.53972 15.3553H1.52761C1.37518 17.3002 1.27899 19.4622 1.23906 21.8415H0.000415802C0.0804616 18.9478 0.280783 16.2352 0.601379 13.7031H2.28509Z" fill="#00758F"/>
<path d="M24.241 13.5823C26.3492 13.5823 27.4033 14.9292 27.4033 17.6217C27.4033 19.0848 27.0863 20.19 26.4529 20.9366C26.3387 21.073 26.2125 21.1909 26.0797 21.3001L27.5716 22.0378L27.5702 22.0377L27.0404 22.9525L25.0975 21.8188C24.7754 21.9142 24.4213 21.9619 24.035 21.9619C22.9998 21.9619 22.2266 21.6602 21.7154 21.0576C21.1542 20.3909 20.8738 19.3414 20.8738 17.9109C20.8738 16.4561 21.1903 15.3551 21.8239 14.6075C22.401 13.9237 23.2068 13.5823 24.241 13.5823ZM17.785 13.5941C18.5385 13.5941 19.2237 13.7957 19.8408 14.1975L19.5273 14.896C18.9993 14.6716 18.4786 14.5588 17.9652 14.5588C17.5486 14.5588 17.2276 14.6591 17.0038 14.8609C16.7788 15.0609 16.6396 15.3182 16.6396 15.6319C16.6396 16.114 16.9831 16.532 17.6172 16.8852C17.8249 16.9988 18.0319 17.1136 18.2382 17.2298L18.2855 17.2564L18.3093 17.2697L18.3566 17.2964L18.3803 17.3097L18.4276 17.3364C18.9076 17.607 19.3593 17.8653 19.3593 17.8653C19.9933 18.3154 20.3094 18.7952 20.3094 19.5856C20.3094 20.2758 20.0564 20.8424 19.5522 21.2857C19.0477 21.7271 18.3698 21.9484 17.521 21.9484C16.727 21.9484 15.9576 21.6937 15.2123 21.1885L15.5609 20.4894C16.2023 20.8109 16.7827 20.9715 17.3039 20.9715C17.7927 20.9715 18.1754 20.8623 18.4522 20.6468C18.7284 20.4297 18.8939 20.1269 18.8939 19.743C18.8939 19.2598 18.5578 18.8467 17.9411 18.5001C17.7481 18.3935 17.5557 18.2858 17.3638 18.1771L17.3166 18.1504C17.2298 18.1014 17.1424 18.0517 17.0568 18.0031L17.0104 17.9767C16.594 17.7398 16.234 17.5329 16.234 17.5329C15.6175 17.082 15.3084 16.5982 15.3084 15.8011C15.3084 15.1418 15.5389 14.6089 15.9993 14.2035C16.4607 13.7972 17.056 13.5941 17.785 13.5941ZM29.881 13.703V20.8403H32.4417V21.8414H28.5822V13.7031L29.881 13.703ZM33.8647 20.8434V21.0126H33.5832V21.8405H33.3679V21.0126H33.0754V20.8434H33.8647ZM34.3846 20.8434L34.6549 21.5231L34.9032 20.8434H35.2083V21.8405H35.0055V21.0817L34.7228 21.8405H34.5766L34.2935 21.0817H34.2826V21.8405H34.0907V20.8434H34.3846ZM24.1084 14.5832C22.866 14.5832 22.2445 15.6085 22.2445 17.6578C22.2445 18.8317 22.4092 19.6829 22.738 20.2134C23.0425 20.7044 23.5194 20.9495 24.1688 20.9495C25.4111 20.9495 26.0326 19.9161 26.0326 17.8505C26.0326 16.6931 25.8679 15.8491 25.5395 15.3183C25.2347 14.8284 24.758 14.5832 24.1084 14.5832" fill="#F29111"/>
<path d="M20.8521 0.50428C21.2642 -0.508396 22.7052 0.258503 23.2645 0.612245C23.4015 0.70075 23.5587 0.88773 23.7159 0.956841C23.961 0.966469 24.206 0.985655 24.4515 0.995902C24.9121 1.10414 25.3436 1.19258 25.7065 1.39929C27.3933 2.39265 28.4913 3.40491 29.5018 5.07693C29.7178 5.43109 29.8257 5.81433 30.0021 6.19757C30.2469 6.76883 30.522 7.36849 30.8061 7.90866C30.9333 8.16475 31.0317 8.44952 31.2084 8.66579C31.2774 8.76468 31.4733 8.79384 31.5904 8.85291C31.9142 9.0205 32.3064 9.14772 32.6109 9.34439C33.1796 9.69896 33.7294 10.1215 34.2292 10.554C34.4155 10.721 34.5424 10.9573 34.7199 11.1339V11.2231C34.5623 11.2714 34.4053 11.3209 34.2482 11.3606C33.905 11.4488 33.601 11.4288 33.268 11.517C33.0622 11.5767 32.8068 11.6555 32.591 11.6755L32.6109 11.6956C32.7379 12.0583 33.4247 12.3533 33.7388 12.5703C34.1204 12.8456 34.4739 13.1796 34.7585 13.5631C34.8567 13.661 34.955 13.75 35.0528 13.8476C35.1211 13.9465 35.1404 14.0744 35.2096 14.1625V14.1924C35.133 14.1654 35.0779 14.1138 35.0257 14.0599L34.9945 14.0274C34.9634 13.995 34.932 13.9633 34.8961 13.9371C34.6797 13.7892 34.4647 13.6123 34.2482 13.4749C33.876 13.2387 33.4444 13.1017 33.0622 12.8646C32.8462 12.727 32.6402 12.5703 32.4342 12.4128C32.2475 12.2748 32.0419 12.0098 31.9246 11.8131C31.8555 11.7044 31.846 11.5767 31.7671 11.4981C31.7812 11.3669 31.9014 11.3279 32.0228 11.2958L32.0507 11.2885C32.0926 11.2776 32.1336 11.2667 32.1694 11.2524C32.6792 11.0359 33.287 10.9573 34.072 10.977C34.0424 10.7799 33.5519 10.5344 33.3954 10.4163C33.0811 10.1898 32.7483 9.95347 32.4149 9.74731C32.2383 9.63934 31.9338 9.56053 31.7381 9.4723C31.4733 9.36406 30.8847 9.25589 30.738 9.04972C30.4887 8.72473 30.3096 8.33708 30.1357 7.94552L30.0884 7.83865L30.041 7.73186C29.8355 7.26031 29.5802 6.76869 29.3743 6.28587C29.2666 6.05034 29.2171 5.84363 29.0992 5.61772C28.3835 4.2315 27.3243 3.0709 26.0401 2.2547C25.618 1.98912 25.1475 1.74334 24.628 1.5763C24.3336 1.48739 23.9803 1.53655 23.6666 1.46834H23.4602C23.284 1.41869 23.1369 1.23191 22.9994 1.13344C22.6958 0.927271 22.3917 0.788841 22.0286 0.641747C21.9014 0.582744 21.5381 0.445346 21.4113 0.553518C21.3328 0.573254 21.293 0.602893 21.2736 0.681701C21.1955 0.799294 21.2642 0.97644 21.3128 1.08489C21.4601 1.39916 21.6659 1.58593 21.8527 1.85151C22.0188 2.08704 22.2252 2.35262 22.343 2.60872C22.5971 3.1592 22.7155 3.7691 22.951 4.31952C23.0384 4.52651 23.1765 4.76204 23.3037 4.94875C23.4114 5.09694 23.6073 5.20408 23.6666 5.39168C23.7848 5.58836 23.4897 6.23732 23.4215 6.44342C23.166 7.24986 23.2155 8.37085 23.5097 9.06987L23.5254 9.10673L23.541 9.14407C23.6485 9.4001 23.7634 9.67579 24.049 9.74737C24.0687 9.72784 24.049 9.73809 24.088 9.72784C24.1571 9.18678 24.1766 8.66572 24.3631 8.24239C24.4709 7.9777 24.686 7.79058 24.8335 7.57451C24.9319 7.63338 24.9319 7.81087 24.9905 7.92833C25.1181 8.23297 25.2552 8.56697 25.4125 8.87251C25.7354 9.50174 26.0988 10.1118 26.5105 10.6622C26.6484 10.8588 26.844 11.0752 27.0205 11.2523C27.0991 11.3209 27.1871 11.3605 27.2462 11.4487H27.2654V11.4784C26.9713 11.37 26.7848 11.0656 26.5501 10.8879C26.1084 10.5539 25.5793 10.0523 25.2748 9.57098C25.1475 9.29467 25.0098 9.02985 24.8725 8.75492V8.73504C24.8139 8.81357 24.8335 8.89156 24.8042 9.01039C24.6768 9.50174 24.7749 10.0623 24.3336 10.239C23.8334 10.446 23.4602 9.90499 23.3037 9.65915C22.8033 8.84315 22.6662 7.46655 23.0191 6.35533C23.0975 6.10935 23.1082 5.81433 23.245 5.61793C23.2154 5.44037 23.0786 5.39182 22.9994 5.28303C22.8622 5.09708 22.7446 4.88046 22.6372 4.67395C22.4307 4.27056 22.2838 3.78857 22.1271 3.35595C22.0582 3.17928 22.0385 3.00193 21.9698 2.83469C21.8526 2.57942 21.6366 2.32333 21.47 2.09749C21.2443 1.77291 20.5872 1.14382 20.8521 0.50428ZM24.0685 2.43081C24.0947 2.45708 24.1263 2.48005 24.1591 2.50268L24.1985 2.52977C24.2511 2.56622 24.3021 2.60459 24.3333 2.65685C24.3828 2.72603 24.392 2.79432 24.4513 2.86364C24.4513 3.09999 24.3828 3.25713 24.2445 3.35505C24.2445 3.35505 24.2351 3.36537 24.2254 3.375C24.147 3.21745 24.0783 3.06073 23.9994 2.90332C23.9021 2.76592 23.7647 2.65692 23.6855 2.49992H23.6664V2.48019C23.7848 2.45096 23.9021 2.43081 24.0685 2.43081Z" fill="#00758F"/>
</svg>
