<svg width="40" height="24" viewBox="0 0 40 24" fill="none" xmlns="http://www.w3.org/2000/svg">
<path d="M19.3491 23.9308C19.2167 23.9308 19.093 23.8954 18.9781 23.8336L17.8032 23.1358C17.6265 23.0386 17.7149 23.0032 17.7679 22.9856C18.0064 22.9061 18.0506 22.8884 18.2979 22.7471C18.3244 22.7294 18.3598 22.7382 18.3863 22.7559L19.2874 23.2948C19.3227 23.3124 19.3668 23.3124 19.3933 23.2948L22.918 21.2541C22.9533 21.2365 22.971 21.2011 22.971 21.157V17.0846C22.971 17.0404 22.9533 17.0052 22.918 16.9874L19.3933 14.9557C19.358 14.9379 19.3138 14.9379 19.2874 14.9557L15.7626 16.9874C15.7273 17.0051 15.7096 17.0493 15.7096 17.0846V21.1569C15.7096 21.1923 15.7273 21.2364 15.7626 21.2541L16.7255 21.8107C17.2467 22.0756 17.5736 21.7665 17.5736 21.4573V17.4379C17.5736 17.3849 17.6177 17.3319 17.6796 17.3319H18.1301C18.1831 17.3319 18.2361 17.3761 18.2361 17.4379V21.4573C18.2361 22.1551 17.8562 22.5615 17.1937 22.5615C16.9905 22.5615 16.8316 22.5615 16.381 22.3406L15.4535 21.8107C15.2238 21.6782 15.0825 21.4308 15.0825 21.1658V17.0934C15.0825 16.8284 15.2238 16.581 15.4535 16.4486L18.9781 14.408C19.199 14.2843 19.4994 14.2843 19.7202 14.408L23.2448 16.4486C23.4745 16.581 23.6159 16.8284 23.6159 17.0934V21.1658C23.6159 21.4308 23.4745 21.6782 23.2448 21.8107L19.7202 23.8513C19.6053 23.9043 19.4728 23.9308 19.3491 23.9308ZM20.4358 21.1305C18.8899 21.1305 18.5719 20.4238 18.5719 19.8231C18.5719 19.77 18.616 19.7171 18.6779 19.7171H19.1372C19.1902 19.7171 19.2344 19.7524 19.2344 19.8054C19.3051 20.2736 19.5082 20.5033 20.4446 20.5033C21.1866 20.5033 21.5048 20.3354 21.5048 19.9379C21.5048 19.7082 21.4163 19.5404 20.2591 19.4256C19.2962 19.3283 18.6955 19.1164 18.6955 18.3479C18.6955 17.6323 19.2963 17.2082 20.3033 17.2082C21.434 17.2082 21.9906 17.597 22.0613 18.4449C22.0613 18.4715 22.0524 18.498 22.0347 18.5245C22.017 18.5421 21.9906 18.5598 21.964 18.5598H21.5047C21.4605 18.5598 21.4163 18.5245 21.4075 18.4803C21.3015 17.9945 21.0277 17.8354 20.3033 17.8354C19.4906 17.8354 19.3934 18.1182 19.3934 18.3301C19.3934 18.5863 19.5082 18.6658 20.6036 18.8071C21.6902 18.9485 22.2026 19.1517 22.2026 19.9114C22.1937 20.6888 21.5577 21.1305 20.4358 21.1305Z" fill="#539E43"/>
<path d="M8.41291 8.00347C8.41291 7.84449 8.32455 7.69422 8.18322 7.61473L4.4377 5.45932C4.37579 5.42393 4.30516 5.40627 4.23454 5.39741H4.19915C4.12852 5.39741 4.05782 5.42393 3.99599 5.45932L0.25046 7.61473C0.109059 7.69422 0.0207787 7.84441 0.0207787 8.00347L0.0296449 13.7984C0.0296449 13.8779 0.0738232 13.9574 0.144447 13.9928C0.215148 14.0369 0.303428 14.0369 0.365339 13.9928L2.59145 12.7207C2.73278 12.6412 2.82114 12.491 2.82114 12.332V9.62003C2.82114 9.46105 2.90942 9.31086 3.05082 9.23137L3.99599 8.68365C4.06669 8.63947 4.14618 8.62174 4.22567 8.62174C4.30516 8.62174 4.38465 8.63947 4.44656 8.68365L5.39173 9.23137C5.53314 9.31086 5.62142 9.46097 5.62142 9.62003V12.332C5.62142 12.491 5.70977 12.6412 5.8511 12.7207L8.07721 13.9928C8.1116 14.0144 8.15141 14.0259 8.19205 14.0259C8.23269 14.0259 8.2725 14.0144 8.30689 13.9928C8.37759 13.9574 8.42177 13.8779 8.42177 13.7984L8.41291 8.00347ZM26.4162 0.0265261C26.3456 -0.00886239 26.2572 -0.00886239 26.1953 0.0265261C26.1247 0.0707045 26.0805 0.141329 26.0805 0.220819V5.96286C26.0805 6.01583 26.0541 6.06879 26.001 6.10418C25.948 6.13063 25.895 6.13063 25.842 6.10418L24.9056 5.56533C24.837 5.52626 24.7594 5.50572 24.6804 5.50572C24.6014 5.50572 24.5237 5.52626 24.4551 5.56533L20.7095 7.72961C20.5682 7.8091 20.4799 7.95929 20.4799 8.11827V12.438C20.4799 12.5969 20.5682 12.7472 20.7095 12.8267L24.4551 14.991C24.5237 15.0301 24.6014 15.0506 24.6804 15.0506C24.7594 15.0506 24.837 15.0301 24.9056 14.991L28.6512 12.8267C28.7925 12.7472 28.8809 12.597 28.8809 12.438V1.66961C28.8809 1.50176 28.7925 1.35165 28.6512 1.27208L26.4162 0.0265261ZM26.0717 11.0158C26.0717 11.06 26.0541 11.0953 26.0187 11.1129L24.7378 11.8549C24.7199 11.8637 24.7003 11.8682 24.6804 11.8682C24.6605 11.8682 24.6408 11.8637 24.6229 11.8549L23.3421 11.1129C23.3067 11.0953 23.289 11.0511 23.289 11.0158V9.53167C23.289 9.48749 23.3067 9.45218 23.3421 9.43453L24.6229 8.69244C24.6408 8.68369 24.6605 8.67914 24.6804 8.67914C24.7003 8.67914 24.7199 8.68369 24.7378 8.69244L26.0187 9.43453C26.0541 9.45211 26.0717 9.49636 26.0717 9.53167V11.0158ZM38.8807 9.49636C39.0221 9.41687 39.1016 9.26668 39.1016 9.10762V8.05644C39.1016 7.89746 39.0132 7.74727 38.8807 7.66777L35.1617 5.51236C35.093 5.47329 35.0154 5.45275 34.9364 5.45275C34.8574 5.45275 34.7798 5.47329 34.7111 5.51236L30.9656 7.67656C30.8242 7.75605 30.7359 7.90625 30.7359 8.06523V12.385C30.7359 12.544 30.8242 12.6942 30.9656 12.7737L34.6846 14.8938C34.826 14.9733 34.9938 14.9733 35.1264 14.8938L37.3789 13.6395C37.4496 13.6041 37.4938 13.5246 37.4938 13.4451C37.4938 13.3656 37.4496 13.2861 37.3789 13.2508L33.6157 11.0865C33.545 11.0423 33.5009 10.9717 33.5009 10.8922V9.54062C33.5009 9.46112 33.545 9.38163 33.6157 9.34625L34.7906 8.67486C34.825 8.65321 34.8648 8.64172 34.9054 8.64172C34.9461 8.64172 34.9859 8.65321 35.0203 8.67486L36.1952 9.34625C36.2659 9.39042 36.31 9.46105 36.31 9.54062V10.6007C36.31 10.6802 36.3542 10.7596 36.4249 10.795C36.4593 10.8166 36.4991 10.8281 36.5397 10.8281C36.5804 10.8281 36.6202 10.8166 36.6546 10.795L38.8807 9.49636Z" fill="#333333"/>
<path d="M34.8789 9.29313C34.8921 9.28449 34.9074 9.27988 34.9231 9.27988C34.9388 9.27988 34.9542 9.28449 34.9673 9.29313L35.6829 9.70832C35.7093 9.72605 35.727 9.75249 35.727 9.78781V10.6183C35.727 10.6536 35.7094 10.6801 35.6829 10.6977L34.9673 11.1129C34.9542 11.1216 34.9388 11.1262 34.9231 11.1262C34.9074 11.1262 34.8921 11.1216 34.8789 11.1129L34.1635 10.6977C34.1369 10.6801 34.1193 10.6536 34.1193 10.6183V9.78788C34.1193 9.75249 34.1369 9.72597 34.1635 9.70839L34.8789 9.29313Z" fill="#539E43"/>
<path d="M14.6761 5.53001C14.6074 5.49096 14.5298 5.47043 14.4508 5.47043C14.3718 5.47043 14.2942 5.49096 14.2256 5.53001L10.5066 7.67649C10.3652 7.75598 10.2857 7.90617 10.2857 8.06515V12.3673C10.2857 12.5262 10.374 12.6764 10.5066 12.7559L14.2256 14.9025C14.2942 14.9416 14.3718 14.9621 14.4508 14.9621C14.5298 14.9621 14.6074 14.9416 14.6761 14.9025L18.3951 12.7559C18.5365 12.6764 18.616 12.5262 18.616 12.3673V8.06522C18.616 7.90624 18.5276 7.75605 18.3951 7.67656L14.6761 5.53001Z" fill="url(#paint0_linear_28_131)"/>
<mask id="mask0_28_131" style="mask-type:luminance" maskUnits="userSpaceOnUse" x="10" y="5" width="9" height="10">
<path d="M14.6761 5.53001C14.6074 5.49096 14.5298 5.47043 14.4508 5.47043C14.3718 5.47043 14.2942 5.49096 14.2256 5.53001L10.5066 7.67649C10.3652 7.75598 10.2857 7.90617 10.2857 8.06515V12.3673C10.2857 12.5262 10.374 12.6764 10.5066 12.7559L14.2256 14.9025C14.2942 14.9416 14.3718 14.9621 14.4508 14.9621C14.5298 14.9621 14.6074 14.9416 14.6761 14.9025L18.3951 12.7559C18.5365 12.6764 18.616 12.5262 18.616 12.3673V8.06522C18.616 7.90624 18.5276 7.75605 18.3951 7.67656L14.6761 5.53001Z" fill="white"/>
</mask>
<g mask="url(#mask0_28_131)">
<path d="M18.4039 7.67657L14.6673 5.53002C14.6306 5.51147 14.5921 5.49666 14.5524 5.48584L10.3652 12.6589C10.3999 12.7013 10.4418 12.7371 10.4889 12.7649L14.2256 14.9116C14.3316 14.9734 14.4553 14.9911 14.5701 14.9557L18.5012 7.765C18.4746 7.72969 18.4393 7.70301 18.4039 7.67657Z" fill="url(#paint1_linear_28_131)"/>
</g>
<mask id="mask1_28_131" style="mask-type:luminance" maskUnits="userSpaceOnUse" x="10" y="5" width="9" height="10">
<path d="M14.6761 5.53001C14.6074 5.49096 14.5298 5.47043 14.4508 5.47043C14.3718 5.47043 14.2942 5.49096 14.2256 5.53001L10.5066 7.67649C10.3652 7.75598 10.2857 7.90617 10.2857 8.06515V12.3673C10.2857 12.5262 10.374 12.6764 10.5066 12.7559L14.2256 14.9025C14.2942 14.9416 14.3718 14.9621 14.4508 14.9621C14.5298 14.9621 14.6074 14.9416 14.6761 14.9025L18.3951 12.7559C18.5365 12.6764 18.616 12.5262 18.616 12.3673V8.06522C18.616 7.90624 18.5276 7.75605 18.3951 7.67656L14.6761 5.53001Z" fill="white"/>
</mask>
<g mask="url(#mask1_28_131)">
<path fill-rule="evenodd" clip-rule="evenodd" d="M18.4128 12.756C18.5188 12.6942 18.5983 12.5882 18.6337 12.4734L14.5347 5.47697C14.4287 5.45932 14.3138 5.46811 14.2167 5.52994L10.5065 7.66778L14.5081 14.9645C14.5664 14.955 14.6229 14.9372 14.676 14.9115L18.4128 12.756Z" fill="url(#paint2_linear_28_131)"/>
<path fill-rule="evenodd" clip-rule="evenodd" d="M18.4128 12.756L14.6849 14.9026C14.6323 14.9294 14.5756 14.9473 14.5171 14.9556L14.5878 15.0881L18.722 12.6942V12.6412L18.616 12.4645C18.5983 12.5881 18.5188 12.6942 18.4128 12.756Z" fill="url(#paint3_linear_28_131)"/>
<path fill-rule="evenodd" clip-rule="evenodd" d="M18.4128 12.756L14.6849 14.9026C14.6323 14.9294 14.5756 14.9473 14.5171 14.9556L14.5878 15.0881L18.722 12.6942V12.6412L18.616 12.4645C18.5983 12.5881 18.5188 12.6942 18.4128 12.756Z" fill="url(#paint4_linear_28_131)"/>
</g>
<defs>
<linearGradient id="paint0_linear_28_131" x1="578.317" y1="171.452" x2="170.682" y2="811.972" gradientUnits="userSpaceOnUse">
<stop stop-color="#41873F"/>
<stop offset="0.3288" stop-color="#418B3D"/>
<stop offset="0.6352" stop-color="#419637"/>
<stop offset="0.9319" stop-color="#3FA92D"/>
<stop offset="1" stop-color="#3FAE2A"/>
</linearGradient>
<linearGradient id="paint1_linear_28_131" x1="362.467" y1="528.923" x2="1383.38" y2="-25.743" gradientUnits="userSpaceOnUse">
<stop offset="0.1376" stop-color="#41873F"/>
<stop offset="0.4032" stop-color="#54A044"/>
<stop offset="0.7136" stop-color="#66B848"/>
<stop offset="0.9081" stop-color="#6CC04A"/>
</linearGradient>
<linearGradient id="paint2_linear_28_131" x1="-25.1638" y1="480.217" x2="835.41" y2="480.217" gradientUnits="userSpaceOnUse">
<stop offset="0.09192" stop-color="#6CC04A"/>
<stop offset="0.2864" stop-color="#66B848"/>
<stop offset="0.5968" stop-color="#54A044"/>
<stop offset="0.8624" stop-color="#41873F"/>
</linearGradient>
<linearGradient id="paint3_linear_28_131" x1="-422.207" y1="144.368" x2="438.358" y2="144.368" gradientUnits="userSpaceOnUse">
<stop offset="0.09192" stop-color="#6CC04A"/>
<stop offset="0.2864" stop-color="#66B848"/>
<stop offset="0.5968" stop-color="#54A044"/>
<stop offset="0.8624" stop-color="#41873F"/>
</linearGradient>
<linearGradient id="paint4_linear_28_131" x1="563.731" y1="-541.305" x2="345.716" y2="601.085" gradientUnits="userSpaceOnUse">
<stop stop-color="#41873F"/>
<stop offset="0.3288" stop-color="#418B3D"/>
<stop offset="0.6352" stop-color="#419637"/>
<stop offset="0.9319" stop-color="#3FA92D"/>
<stop offset="1" stop-color="#3FAE2A"/>
</linearGradient>
</defs>
</svg>
