<svg width="25" height="24" viewBox="0 0 25 24" fill="none" xmlns="http://www.w3.org/2000/svg">
<path d="M11.948 0.0067749C5.84614 0.0067749 6.22713 2.65289 6.22713 2.65289L6.23391 5.39435H12.0568V6.21741H3.92115C3.92115 6.21741 0.0165882 5.77459 0.0165882 11.9313C0.0165882 18.0882 3.42459 17.8698 3.42459 17.8698H5.45847V15.0128C5.45847 15.0128 5.34882 11.6048 8.81207 11.6048H14.5873C14.5873 11.6048 17.832 11.6572 17.832 8.46889V3.19718C17.832 3.19718 18.3248 0.0067749 11.948 0.0067749ZM8.73725 1.85035C8.87485 1.85023 9.01112 1.87724 9.13827 1.92984C9.26541 1.98244 9.38094 2.05959 9.47824 2.15689C9.57554 2.25419 9.65269 2.36971 9.70529 2.49686C9.75789 2.62401 9.7849 2.76028 9.78478 2.89788C9.7849 3.03548 9.75789 3.17175 9.70529 3.2989C9.65269 3.42605 9.57554 3.54158 9.47824 3.63887C9.38094 3.73617 9.26541 3.81332 9.13827 3.86592C9.01112 3.91852 8.87485 3.94553 8.73725 3.94541C8.59965 3.94553 8.46338 3.91852 8.33623 3.86592C8.20908 3.81332 8.09355 3.73617 7.99626 3.63887C7.89896 3.54158 7.8218 3.42605 7.7692 3.2989C7.7166 3.17175 7.68959 3.03548 7.68972 2.89788C7.68959 2.76028 7.7166 2.62401 7.7692 2.49686C7.8218 2.36971 7.89896 2.25419 7.99626 2.15689C8.09355 2.05959 8.20908 1.98244 8.33623 1.92984C8.46338 1.87724 8.59965 1.85023 8.73725 1.85035Z" fill="url(#paint0_linear_33_150)"/>
<path d="M12.1212 23.9177C18.2231 23.9177 17.8421 21.2716 17.8421 21.2716L17.8353 18.5303H12.0124V17.7072H20.148C20.148 17.7072 24.0525 18.15 24.0525 11.9931C24.0525 5.83633 20.6445 6.05468 20.6445 6.05468H18.6107V8.91162C18.6107 8.91162 18.7203 12.3196 15.2571 12.3196H9.48181C9.48181 12.3196 6.23711 12.2672 6.23711 15.4556V20.7274C6.23711 20.7274 5.7444 23.9177 12.1212 23.9177M15.3319 22.0744C15.1943 22.0745 15.058 22.0475 14.9309 21.9949C14.8037 21.9423 14.6882 21.8651 14.5909 21.7678C14.4936 21.6705 14.4164 21.555 14.3638 21.4278C14.3112 21.3007 14.2842 21.1644 14.2844 21.0268C14.2842 20.8892 14.3112 20.7529 14.3638 20.6258C14.4164 20.4986 14.4936 20.3831 14.5909 20.2858C14.6882 20.1885 14.8037 20.1113 14.9308 20.0587C15.058 20.0061 15.1943 19.9791 15.3319 19.9792C15.4695 19.9791 15.6058 20.0061 15.7329 20.0587C15.8601 20.1113 15.9756 20.1884 16.0729 20.2857C16.1702 20.383 16.2473 20.4986 16.2999 20.6257C16.3525 20.7529 16.3795 20.8891 16.3794 21.0267C16.3795 21.1643 16.3525 21.3006 16.2999 21.4277C16.2473 21.5549 16.1702 21.6704 16.0729 21.7677C15.9756 21.865 15.8601 21.9422 15.7329 21.9948C15.6058 22.0474 15.4695 22.0745 15.3319 22.0744Z" fill="url(#paint1_linear_33_150)"/>
<defs>
<linearGradient id="paint0_linear_33_150" x1="231.001" y1="215.072" x2="1422.15" y2="1394.34" gradientUnits="userSpaceOnUse">
<stop stop-color="#387EB8"/>
<stop offset="1" stop-color="#366994"/>
</linearGradient>
<linearGradient id="paint1_linear_33_150" x1="347.171" y1="373.677" x2="1626.33" y2="1582.91" gradientUnits="userSpaceOnUse">
<stop stop-color="#FFE052"/>
<stop offset="1" stop-color="#FFC331"/>
</linearGradient>
</defs>
</svg>
