<svg width="1361" height="1395" viewBox="0 0 1361 1395" fill="none" xmlns="http://www.w3.org/2000/svg">
<path d="M1133 242.048C1131.79 255.875 1122.94 266.305 1116.03 277.1C1004.47 455.94 879.087 625.744 756.738 797.61C628.447 977.602 498.883 1156.62 361.922 1330.19C357.556 1335.71 353.434 1341.47 348.886 1346.86C335.912 1362.39 320.936 1371.73 302.202 1356.57C283.468 1341.41 287.833 1324.43 300.08 1308.05C509.856 1030.97 687.075 731.629 889.151 449.269C943.071 373.555 1003.31 302.55 1069.22 237.014C1076.65 228.839 1085.51 222.079 1095.35 217.062C1115.24 208.996 1133.91 222.035 1133 242.048Z" fill="#FFC0A7"/>
<path d="M247.816 1128.12C242.995 1128.34 238.193 1127.38 233.829 1125.32C229.464 1123.26 225.669 1120.17 222.776 1116.3C219.882 1112.44 217.977 1107.93 217.227 1103.16C216.477 1098.39 216.904 1093.51 218.472 1088.95C221.985 1079.49 226.868 1070.6 232.962 1062.56C403.148 814.651 570.665 564.797 748.915 322.705C798.214 254.871 854.683 192.552 917.342 136.83C931.467 123.79 947.521 113.009 964.936 104.871C974.94 100.444 984.701 100.08 992.886 108.388C996.593 111.95 998.928 116.704 999.483 121.815C1000.04 126.927 998.775 132.071 995.917 136.345C987.589 151.32 978.335 165.761 968.21 179.584C765.042 448.602 572.727 725.383 367.983 993.309C339.79 1030.18 312.325 1067.6 284.497 1104.77C275.463 1116.96 265.217 1128 247.816 1128.12Z" fill="#BBBEA0"/>
<path d="M1263.05 411.245C1260.47 423.134 1254.94 434.185 1246.98 443.387C1178.17 538.113 1108.14 632.051 1040.85 727.687C978.58 815.924 918.8 905.86 858.171 995.249C771.168 1123.03 683.741 1250.38 581.278 1366.57C569.637 1379.73 556.602 1406.17 536.413 1389.74C516.223 1373.31 540.172 1355.6 550.66 1341.71C670.524 1183.55 767.227 1010.65 870.054 841.698C935.23 734.722 1002.23 629.019 1080.25 530.775C1120.57 479.955 1164.53 432.774 1216.91 394.083C1227.1 386.563 1238.25 381.954 1250.68 388.564C1254.74 390.714 1258.08 394.01 1260.28 398.043C1262.48 402.077 1263.44 406.668 1263.05 411.245Z" fill="#BCA28E"/>
<path d="M864.535 29.6713C862.473 46.6517 851.075 62.3586 840.708 78.1867C772.5 183.162 695.622 282.012 622.443 383.47C475.398 587.316 328.291 791.06 181.125 994.704C170.515 1009.38 160.086 1036 138.321 1022.05C114.069 1006.29 139.351 987.669 148.082 973.539C309.416 718.833 470.204 463.278 639.662 213.605C684.963 146.787 736.463 84.391 793.478 27.2456C804.209 16.5116 815.122 5.8381 830.279 1.593C851.075 -4.22885 864.838 6.0807 864.535 29.6713Z" fill="#FFC0A7"/>
<path d="M787.05 1316.24C787.353 1304.54 793.537 1295.2 799.176 1285.92C918.736 1091.13 1049.09 903.859 1197.81 730.295C1219.7 704.582 1242.13 679.9 1272.45 664.435C1283.48 658.856 1295.18 653.701 1306.22 663.586C1315.8 672.198 1313.86 683.963 1310.95 694.757C1301.55 729.628 1281.6 758.919 1259.9 786.937C1184.39 884.25 1108.69 981.423 1032.78 1078.45C970.834 1156.82 913.212 1238.51 860.169 1323.15C854.958 1331.74 848.361 1339.4 840.646 1345.83C829.248 1355.05 816.395 1353.84 803.844 1346.38C798.48 1343.46 794.053 1339.08 791.08 1333.74C788.107 1328.41 786.71 1322.34 787.05 1316.24Z" fill="#BBBEA0"/>
<path d="M631.05 51.0791C645.722 51.0791 655.302 53.505 660.273 64.239C664.821 73.9421 660.273 81.8258 654.938 89.467C653.282 92.0201 651.394 94.4155 649.3 96.623C509.368 237.803 409.027 410.457 280.311 560.734C210.164 642.603 146.928 730.538 80.9632 816.046C77.2649 820.837 73.9302 825.992 69.8075 830.419C59.6824 841.274 49.3755 857.527 32.5813 844.064C15.787 830.601 30.3986 817.987 38.0985 807.192C120.493 691.18 203.919 575.895 285.95 459.579C352.278 365.52 416.545 270.126 482.63 175.885C509.307 137.861 538.409 101.535 576.787 74.124C594.248 61.7526 613.165 52.3526 631.05 51.0791Z" fill="#BCA28E"/>
<path d="M1360.84 848.915C1358.05 874.143 1343.38 896.096 1328.65 917.746C1297.97 962.805 1267.05 1007.68 1235.46 1052.13C1174.83 1137.76 1118.93 1226.67 1065.7 1317.39C1044.42 1353.78 1025.32 1364.21 1002.4 1352.44C977.183 1339.47 972.757 1310.72 992.522 1275.49C1069.76 1138.19 1152.22 1004.1 1247.16 878.084C1264.75 854.736 1282.45 830.721 1310.88 819.32C1339.32 807.919 1360.9 820.472 1360.84 848.915Z" fill="#BCA28E"/>
<path d="M522.103 37.4946C517.01 44.8932 512.038 52.4131 506.642 59.6904C437.586 153.204 357.253 237.317 282.679 326.222C197.798 427.619 112.918 529.502 40.1628 639.995C36.4212 646.02 32.374 651.85 28.037 657.461C22.5804 664.193 17.4269 675.654 6.93812 669.893C-6.21838 662.737 2.51223 651.7 7.30192 643.816C40.7085 588.448 76.3584 534.656 114.918 482.563C226.84 331.619 339.731 181.464 475.782 50.715C484.258 42.075 493.446 34.1634 503.247 27.0638C513.19 19.9684 519.738 24.5774 522.103 37.4946Z" fill="#FFC0A7"/>
</svg>
