<svg width="48" height="48" viewBox="0 0 48 48" fill="none" xmlns="http://www.w3.org/2000/svg">
<path d="M40.166 30.4L42.57 31.842C42.7183 31.9308 42.8411 32.0565 42.9263 32.2069C43.0115 32.3572 43.0564 32.5271 43.0564 32.7C43.0564 32.8729 43.0115 33.0428 42.9263 33.1931C42.8411 33.3435 42.7183 33.4692 42.57 33.558L25.03 44.082C24.7189 44.2689 24.3629 44.3676 24 44.3676C23.6371 44.3676 23.2811 44.2689 22.97 44.082L5.43 33.558C5.28169 33.4692 5.15893 33.3435 5.07369 33.1931C4.98845 33.0428 4.94365 32.8729 4.94365 32.7C4.94365 32.5271 4.98845 32.3572 5.07369 32.2069C5.15893 32.0565 5.28169 31.9308 5.43 31.842L7.834 30.4L24 40.1L40.166 30.4ZM40.166 21L42.57 22.442C42.7183 22.5308 42.8411 22.6565 42.9263 22.8069C43.0115 22.9572 43.0564 23.1271 43.0564 23.3C43.0564 23.4729 43.0115 23.6428 42.9263 23.7931C42.8411 23.9435 42.7183 24.0692 42.57 24.158L24 35.298L5.43 24.158C5.28169 24.0692 5.15893 23.9435 5.07369 23.7931C4.98845 23.6428 4.94365 23.4729 4.94365 23.3C4.94365 23.1271 4.98845 22.9572 5.07369 22.8069C5.15893 22.6565 5.28169 22.5308 5.43 22.442L7.834 21L24 30.7L40.166 21ZM25.028 2.618L42.57 13.142C42.7183 13.2308 42.8411 13.3565 42.9263 13.5069C43.0115 13.6572 43.0564 13.8271 43.0564 14C43.0564 14.1729 43.0115 14.3428 42.9263 14.4931C42.8411 14.6435 42.7183 14.7692 42.57 14.858L24 25.998L5.43 14.86C5.28169 14.7712 5.15893 14.6455 5.07369 14.4951C4.98845 14.3448 4.94365 14.1749 4.94365 14.002C4.94365 13.8291 4.98845 13.6592 5.07369 13.5089C5.15893 13.3585 5.28169 13.2328 5.43 13.144L22.97 2.62C23.2811 2.43311 23.6371 2.33438 24 2.33438C24.3629 2.33438 24.7189 2.43311 25.03 2.62M24 6.664L11.774 14L24 21.336L36.226 14L24 6.664Z" fill="white"/>
</svg>
