<svg width="24" height="24" viewBox="0 0 24 24" fill="none" xmlns="http://www.w3.org/2000/svg">
<path d="M6.75 10.275C7.45 7.475 9.2 6.075 12 6.075C16.2 6.075 16.725 9.225 18.825 9.75C20.225 10.1 21.45 9.575 22.5 8.175C21.8 10.975 20.05 12.375 17.25 12.375C13.05 12.375 12.525 9.225 10.425 8.7C9.025 8.35 7.8 8.875 6.75 10.275ZM1.5 16.575C2.2 13.775 3.95 12.375 6.75 12.375C10.95 12.375 11.475 15.525 13.575 16.05C14.975 16.4 16.2 15.875 17.25 14.475C16.55 17.275 14.8 18.675 12 18.675C7.8 18.675 7.275 15.525 5.175 15C3.775 14.65 2.55 15.175 1.5 16.575Z" fill="#44A8B3"/>
</svg>
