<svg width="24" height="24" viewBox="0 0 24 24" fill="none" xmlns="http://www.w3.org/2000/svg">
<path d="M12.4065 8.21925L13.3327 8.8365C13.4362 8.9055 13.5765 8.856 13.5855 8.7315C13.653 7.84275 12.7478 6.714 12.288 6.369L12.4065 8.21925Z" fill="#FFB02E"/>
<path d="M1.029 7.2945C1.077 7.10325 1.3425 7.11675 1.38525 7.308C1.5165 7.89075 1.6305 8.136 1.82025 8.523C1.85625 8.59425 1.968 8.5695 1.97025 8.48925C2.02125 6.2235 2.60325 4.08375 3.4815 2.8905C3.582 2.754 3.7815 2.8305 3.7815 3V4.94925C3.7815 5.0355 3.92175 5.06175 3.95625 4.983C4.41975 3.91275 5.859 1.24425 8.8875 0.633751C9.07725 0.596251 9.1725 0.836251 9.021 0.956251C7.8705 1.86375 6.2745 3.5115 6.225 5.80575C6.1455 9.4365 8.6115 10.7828 9.7485 11.2658C9.8355 11.3028 9.923 11.337 10.011 11.3685C10.6411 11.6019 11.164 12.0578 11.4813 12.6502C11.7985 13.2425 11.888 13.9305 11.7331 14.5843C11.5781 15.2381 11.1894 15.8127 10.6401 16.1997C10.0907 16.5867 9.41884 16.7594 8.751 16.6853H8.74725C4.86975 16.254 -0.543751 13.5975 1.02975 7.29375" fill="#F8312F"/>
<path fill-rule="evenodd" clip-rule="evenodd" d="M19.5105 15.21C19.4274 14.7288 19.2431 14.2707 18.9697 13.866C18.3652 12.966 17.1397 11.1908 16.6537 10.8413C16.4407 10.6869 16.1868 10.5989 15.924 10.5884C15.6611 10.5778 15.401 10.6452 15.1762 10.782C13.461 11.8298 11.6872 11.8298 11.6872 11.8298C11.5471 11.8298 11.4096 11.7908 11.2904 11.7172C11.1711 11.6435 11.0747 11.5381 11.012 11.4127C10.9493 11.2873 10.9228 11.1469 10.9354 11.0073C10.9481 10.8677 10.9993 10.7344 11.0835 10.6223L12.654 8.52825C12.7741 8.36834 12.8611 8.18614 12.9101 7.99227C12.959 7.79839 12.9689 7.59671 12.9392 7.39897C12.9095 7.20123 12.8407 7.01138 12.7369 6.84047C12.6331 6.66957 12.4963 6.52103 12.3345 6.4035L9.4245 4.287C9.4245 4.287 9.4245 5.79525 10.179 6.54975L8.0115 9.1845C7.22102 10.1411 6.78731 11.3426 6.7845 12.5835C6.7845 15.711 9.3225 18.246 12.4515 18.2408C13.4569 18.2417 14.4441 17.9731 15.3105 17.463L15.3135 17.4615L15.4035 17.4075L16.176 16.9425C16.2876 16.8758 16.4181 16.8481 16.5472 16.8639C16.6762 16.8796 16.7963 16.9379 16.8885 17.0295C17.121 17.2643 17.1158 17.6475 16.8555 17.8515C15.5968 18.8398 14.0421 19.3756 12.4418 19.3725C11.1108 19.3749 9.80571 19.0044 8.6745 18.303C8.511 18.2018 8.29275 18.3158 8.29275 18.5078C8.29275 18.5433 8.301 18.577 8.3175 18.609C8.496 18.939 9.648 20.8808 12.0645 20.8808C12.0645 20.8808 11.25 21.1523 10.542 21.2348C10.4085 21.2498 10.356 21.4043 10.4745 21.4673C11.4892 21.9938 13.7865 21.9053 14.3273 21.6345C14.3273 21.6345 14.0355 22.218 13.1295 22.872C13.0095 22.9583 13.0635 23.151 13.212 23.1465C16.722 23.0318 19.6065 19.9275 19.6065 16.3553C19.6065 15.9653 19.5745 15.5835 19.5105 15.21Z" fill="#FF6723"/>
<path d="M11.6872 8.058C11.7873 8.058 11.8833 8.01826 11.954 7.94751C12.0248 7.87676 12.0645 7.7808 12.0645 7.68075C12.0645 7.5807 12.0248 7.48474 11.954 7.414C11.8833 7.34325 11.7873 7.3035 11.6872 7.3035C11.5872 7.3035 11.4912 7.34325 11.4205 7.414C11.3497 7.48474 11.31 7.5807 11.31 7.68075C11.31 7.7808 11.3497 7.87676 11.4205 7.94751C11.4912 8.01826 11.5872 8.058 11.6872 8.058Z" fill="url(#paint0_radial_2_12)"/>
<path d="M11.6872 8.058C11.7873 8.058 11.8833 8.01826 11.954 7.94751C12.0248 7.87676 12.0645 7.7808 12.0645 7.68075C12.0645 7.5807 12.0248 7.48474 11.954 7.414C11.8833 7.34325 11.7873 7.3035 11.6872 7.3035C11.5872 7.3035 11.4912 7.34325 11.4205 7.414C11.3497 7.48474 11.31 7.5807 11.31 7.68075C11.31 7.7808 11.3497 7.87676 11.4205 7.94751C11.4912 8.01826 11.5872 8.058 11.6872 8.058Z" fill="#1D1D1B"/>
<path d="M22.971 7.2945C22.923 7.10325 22.6575 7.11675 22.6148 7.30875C22.4843 7.8915 22.3695 8.136 22.1798 8.52225C22.1445 8.59425 22.032 8.5695 22.0305 8.48925C21.978 6.2235 21.3968 4.08375 20.5185 2.8905C20.418 2.754 20.2185 2.8305 20.2185 3V4.94925C20.2185 5.0355 20.0783 5.06175 20.0445 4.983C19.5803 3.91275 18.141 1.24425 15.1125 0.6345C14.9228 0.59625 14.8275 0.8355 14.979 0.9555C16.1295 1.8645 17.7255 3.513 17.775 5.8065C17.8545 9.43725 15.3885 10.7835 14.2515 11.2665C14.1649 11.3031 14.0774 11.3374 13.989 11.3693C13.3589 11.6027 12.836 12.0585 12.5187 12.6509C12.2015 13.2433 12.112 13.9312 12.2669 14.585C12.4219 15.2389 12.8106 15.8135 13.3599 16.2005C13.9093 16.5875 14.5812 16.7602 15.249 16.686H15.2528C19.1303 16.2547 24.5445 13.5983 22.971 7.2945Z" fill="#F8312F"/>
<path d="M2.2485 11.7863C2.373 12.4545 2.64975 13.5705 3.2175 14.5133C1.35375 13.0125 0.185249 10.6785 1.029 7.2945C1.077 7.10325 1.3425 7.11675 1.38525 7.308C1.5165 7.89075 1.6305 8.136 1.82025 8.523C1.85625 8.59425 1.968 8.5695 1.97025 8.48925C2.02125 6.2235 2.60325 4.08375 3.4815 2.8905C3.582 2.754 3.7815 2.8305 3.7815 3V4.94925C3.7815 5.0355 3.92175 5.06175 3.95625 4.983C4.41975 3.91275 5.859 1.24425 8.8875 0.633751C9.07725 0.596251 9.1725 0.836251 9.021 0.956251C8.32125 1.50825 7.45725 2.334 6.876 3.4125C5.652 5.21625 4.86375 8.001 4.80375 9.67725C4.8 9.79425 4.67175 9.8655 4.575 9.80025C4.0785 9.46125 3.79275 9.09825 3.636 8.838C3.59325 8.76675 3.43875 8.793 3.4335 8.8755C3.38925 9.588 3.3315 11.082 3.5445 12.0338C3.57525 12.171 3.432 12.2835 3.3195 12.1988C3.08775 12.0218 2.8215 11.7938 2.6025 11.598C2.4465 11.46 2.21025 11.5815 2.2485 11.7855M21.7523 11.7863C21.627 12.4545 21.3495 13.5705 20.7825 14.5133C22.6463 13.0118 23.8148 10.6785 22.971 7.2945C22.923 7.10325 22.6575 7.11675 22.6148 7.308C22.4835 7.89075 22.3695 8.136 22.1798 8.523C22.1445 8.59425 22.032 8.5695 22.0298 8.48925C21.9788 6.2235 21.3968 4.08375 20.5185 2.8905C20.418 2.754 20.2185 2.8305 20.2185 3V4.94925C20.2185 5.0355 20.0783 5.06175 20.0438 4.983C19.5803 3.91275 18.141 1.24425 15.1125 0.633751C14.9228 0.596251 14.8275 0.836251 14.979 0.956251C15.6788 1.50825 16.5428 2.334 17.124 3.4125C18.348 5.21625 19.1363 8.001 19.1963 9.67725C19.2 9.79425 19.3283 9.8655 19.425 9.80025C19.9215 9.46125 20.2073 9.09825 20.364 8.838C20.4068 8.76675 20.5613 8.793 20.5665 8.8755C20.6108 9.588 20.6685 11.082 20.4548 12.0338C20.4248 12.171 20.568 12.2835 20.6798 12.1988C20.9123 12.0218 21.1785 11.7938 21.3975 11.598C21.5535 11.46 21.7898 11.5815 21.7523 11.7855" fill="#FFB02E"/>
<path fill-rule="evenodd" clip-rule="evenodd" d="M10.6155 17.94C9.282 17.1338 8.2005 15.567 8.5155 13.7235C8.52675 13.6568 8.6145 13.641 8.6505 13.698C8.82225 13.965 9.16575 14.469 9.29625 14.4202C9.3435 14.403 9.33675 14.2868 9.324 14.0745C9.29475 13.5893 9.23625 12.603 9.71925 11.1533C9.91875 10.554 9.72225 9.87675 9.1845 9.54525C8.93128 9.38874 8.63059 9.32755 8.33633 9.37262C8.04208 9.4177 7.77351 9.56611 7.57875 9.79125C7.06051 10.6305 6.78554 11.5972 6.7845 12.5835C6.78499 13.7642 7.15455 14.9152 7.84146 15.8755C8.52837 16.8358 9.49828 17.5581 10.6155 17.94ZM18.477 20.0925C17.7367 20.67 16.5637 21.3652 15.2992 21.6825C15.2723 21.6892 15.2439 21.6879 15.2177 21.6789C15.1914 21.6698 15.1683 21.6534 15.1512 21.6315C15.1341 21.6096 15.1236 21.5832 15.1212 21.5556C15.1187 21.5279 15.1243 21.5001 15.1372 21.4755L15.5955 20.5583C15.6084 20.532 15.6134 20.5026 15.61 20.4736C15.6065 20.4446 15.5946 20.4173 15.5759 20.3948C15.5571 20.3724 15.5323 20.356 15.5043 20.3474C15.4764 20.3389 15.4466 20.3387 15.4185 20.3468C14.7311 20.5475 14.0375 20.7264 13.3387 20.883C13.1857 20.9168 13.1055 20.733 13.2308 20.6393L13.9313 20.1143C13.998 20.064 13.9425 19.9418 13.86 19.9538C13.4325 20.0213 12.711 20.0775 12 19.875C11.529 19.7408 11.172 19.5233 10.8855 19.203C10.1031 19.0295 9.35564 18.7252 8.6745 18.303C8.511 18.2018 8.29275 18.3158 8.29275 18.5078C8.29275 18.5433 8.301 18.577 8.3175 18.609C8.496 18.939 9.648 20.8808 12.0645 20.8808C12.0645 20.8808 11.25 21.1523 10.542 21.2348C10.4085 21.2498 10.356 21.4042 10.4745 21.4672C11.4892 21.9937 13.7865 21.9053 14.3273 21.6345C14.3273 21.6345 14.0355 22.218 13.1295 22.872C13.0095 22.9583 13.0635 23.151 13.212 23.1465C15.3855 23.0752 17.3197 21.8573 18.477 20.0925Z" fill="#FFB02E"/>
<defs>
<radialGradient id="paint0_radial_2_12" cx="0" cy="0" r="1" gradientUnits="userSpaceOnUse" gradientTransform="translate(12.1526 7.44556) rotate(109.09) scale(0.50535)">
<stop stop-color="#8A6F99"/>
<stop offset="1" stop-color="#532C46"/>
</radialGradient>
</defs>
</svg>
