<svg width="24" height="24" viewBox="0 0 24 24" fill="none" xmlns="http://www.w3.org/2000/svg">
<path d="M12 14.1375C13.1805 14.1375 14.1375 13.1805 14.1375 12C14.1375 10.8195 13.1805 9.8625 12 9.8625C10.8195 9.8625 9.8625 10.8195 9.8625 12C9.8625 13.1805 10.8195 14.1375 12 14.1375Z" fill="#61DAFB"/>
<path d="M20.1187 8.475C19.7062 8.325 19.275 8.175 18.825 8.04375C18.9375 7.59375 19.0312 7.14375 19.1062 6.7125C19.5 4.2375 19.0687 2.49375 17.8687 1.81875C17.5125 1.6125 17.1187 1.51875 16.6687 1.51875C15.3562 1.51875 13.6875 2.49375 12 4.125C10.3125 2.49375 8.64375 1.51875 7.33125 1.51875C6.88125 1.51875 6.4875 1.6125 6.13125 1.81875C4.93125 2.5125 4.5 4.25625 4.89375 6.7125C4.96875 7.14375 5.0625 7.59375 5.175 8.04375C4.725 8.175 4.29375 8.30625 3.88125 8.475C1.5375 9.375 0.262501 10.6125 0.262501 12C0.262501 13.3875 1.55625 14.625 3.88125 15.525C4.29375 15.675 4.725 15.825 5.175 15.9563C5.0625 16.4063 4.96875 16.8563 4.89375 17.2875C4.5 19.7625 4.93125 21.5063 6.13125 22.1813C6.4875 22.3875 6.88125 22.4813 7.33125 22.4813C8.6625 22.4813 10.3312 21.5063 12 19.875C13.6875 21.5063 15.3562 22.4813 16.6687 22.4813C17.1187 22.4813 17.5125 22.3875 17.8687 22.1813C19.0687 21.4875 19.5 19.7438 19.1062 17.2875C19.0312 16.8563 18.9375 16.4063 18.825 15.9563C19.275 15.825 19.7062 15.6938 20.1187 15.525C22.4625 14.625 23.7375 13.3875 23.7375 12C23.7375 10.6125 22.4625 9.375 20.1187 8.475ZM17.3437 2.75625C18.1125 3.20625 18.375 4.59375 18.0562 6.5625C18 6.95625 17.9062 7.36875 17.7937 7.8C16.8187 7.575 15.7875 7.425 14.7 7.33125C14.0625 6.43125 13.4062 5.625 12.75 4.89375C14.1375 3.525 15.5437 2.5875 16.6875 2.5875C16.9312 2.5875 17.1562 2.64375 17.3437 2.75625ZM15.2437 13.875C14.9062 14.475 14.5125 15.075 14.1 15.675C13.4062 15.7313 12.7125 15.75 12 15.75C11.2687 15.75 10.575 15.7313 9.9 15.675C9.4875 15.075 9.1125 14.475 8.775 13.875C8.41875 13.2563 8.08125 12.6188 7.78125 12C8.08125 11.3813 8.41875 10.7438 8.775 10.125C9.1125 9.525 9.50625 8.925 9.91875 8.325C10.6125 8.26875 11.3062 8.25 12.0187 8.25C12.75 8.25 13.4438 8.26875 14.1187 8.325C14.5312 8.925 14.9062 9.525 15.2437 10.125C15.6 10.7438 15.9375 11.3813 16.2375 12C15.9187 12.6188 15.6 13.2375 15.2437 13.875ZM16.8 13.2563C17.0812 13.9125 17.3062 14.55 17.5125 15.1875C16.875 15.3375 16.2 15.45 15.4875 15.5438C15.7125 15.1875 15.9562 14.8125 16.1625 14.4188C16.3875 14.025 16.5937 13.6313 16.8 13.2563ZM12 18.3375C11.55 17.85 11.1187 17.325 10.7062 16.7813C11.1375 16.8 11.5687 16.8188 12 16.8188C12.4312 16.8188 12.8625 16.8 13.2937 16.7813C12.8812 17.325 12.45 17.85 12 18.3375ZM8.5125 15.525C7.8 15.4313 7.125 15.3188 6.4875 15.1688C6.69375 14.55 6.91875 13.8938 7.2 13.2375C7.40625 13.6125 7.6125 14.0063 7.8375 14.3813C8.0625 14.7938 8.2875 15.15 8.5125 15.525ZM7.2 10.7438C6.91875 10.0875 6.69375 9.45 6.4875 8.8125C7.125 8.6625 7.8 8.55 8.5125 8.45625C8.2875 8.8125 8.04375 9.1875 7.8375 9.58125C7.6125 9.975 7.40625 10.3688 7.2 10.7438ZM12 5.6625C12.45 6.15 12.8812 6.675 13.2937 7.21875C12.8625 7.2 12.4312 7.18125 12 7.18125C11.5687 7.18125 11.1375 7.2 10.7062 7.21875C11.1187 6.675 11.55 6.15 12 5.6625ZM16.1625 9.6L15.4875 8.475C16.2 8.56875 16.875 8.68125 17.5125 8.83125C17.3062 9.45 17.0812 10.1063 16.8 10.7625C16.5937 10.3688 16.3875 9.975 16.1625 9.6ZM5.94375 6.5625C5.625 4.59375 5.8875 3.20625 6.65625 2.75625C6.84375 2.64375 7.06875 2.5875 7.3125 2.5875C8.4375 2.5875 9.84375 3.50625 11.25 4.89375C10.5937 5.60625 9.9375 6.43125 9.3 7.33125C8.2125 7.425 7.18125 7.59375 6.20625 7.8C6.09375 7.36875 6.01875 6.95625 5.94375 6.5625ZM1.3125 12C1.3125 11.1188 2.38125 10.1813 4.25625 9.4875C4.63125 9.3375 5.04375 9.20625 5.45625 9.09375C5.75625 10.0313 6.13125 11.025 6.58125 12.0188C6.13125 13.0125 5.7375 13.9875 5.45625 14.925C2.86875 14.175 1.3125 13.05 1.3125 12ZM6.65625 21.2438C5.8875 20.7938 5.625 19.4063 5.94375 17.4375C6 17.0438 6.09375 16.6313 6.20625 16.2C7.18125 16.425 8.2125 16.575 9.3 16.6688C9.9375 17.5688 10.5937 18.375 11.25 19.1063C9.8625 20.475 8.45625 21.4125 7.3125 21.4125C7.06875 21.4125 6.84375 21.3563 6.65625 21.2438ZM18.0562 17.4375C18.375 19.4063 18.1125 20.7938 17.3437 21.2438C17.1562 21.3563 16.9312 21.4125 16.6875 21.4125C15.5625 21.4125 14.1562 20.4938 12.75 19.1063C13.4062 18.3938 14.0625 17.5688 14.7 16.6688C15.7875 16.575 16.8187 16.4063 17.7937 16.2C17.9062 16.6313 17.9812 17.0438 18.0562 17.4375ZM19.7437 14.5125C19.3687 14.6625 18.9562 14.7938 18.5437 14.9063C18.2437 13.9688 17.8687 12.975 17.4187 11.9813C17.8687 10.9875 18.2625 10.0125 18.5437 9.075C21.1312 9.825 22.6875 10.95 22.6875 12C22.6875 12.8813 21.6 13.8188 19.7437 14.5125Z" fill="#61DAFB"/>
</svg>
